<mxfile host="Electron" modified="2024-12-02T05:54:15.948Z" agent="Mozilla/5.0 (Windows NT 10.0; Win64; x64) AppleWebKit/537.36 (KHTML, like Gecko) draw.io/21.6.1 Chrome/112.0.5615.204 Electron/24.6.1 Safari/537.36" etag="iS4u4-QRQ9ctPLZ1tpdj" version="21.6.1" type="device">
  <diagram name="Page-1" id="UhHEcrwQUCHORO4G9uPf">
    <mxGraphModel dx="4901" dy="2343" grid="1" gridSize="10" guides="1" tooltips="1" connect="1" arrows="1" fold="1" page="1" pageScale="1" pageWidth="850" pageHeight="1100" math="0" shadow="0">
      <root>
        <mxCell id="0" />
        <mxCell id="1" parent="0" />
        <mxCell id="PY0LSQ1uhZMkH___Wvzr-1" value="" style="whiteSpace=wrap;html=1;aspect=fixed;" vertex="1" parent="1">
          <mxGeometry x="-510" y="150" width="1800" height="1800" as="geometry" />
        </mxCell>
        <mxCell id="PY0LSQ1uhZMkH___Wvzr-2" value="&lt;font style=&quot;font-size: 50px;&quot;&gt;Customer&lt;/font&gt;" style="shape=umlActor;verticalLabelPosition=bottom;verticalAlign=top;html=1;outlineConnect=0;" vertex="1" parent="1">
          <mxGeometry x="-726" y="1010" width="100" height="180" as="geometry" />
        </mxCell>
        <mxCell id="PY0LSQ1uhZMkH___Wvzr-3" value="&lt;font style=&quot;font-size: 100px;&quot;&gt;Bank Management System&lt;/font&gt;" style="text;html=1;strokeColor=none;fillColor=none;align=center;verticalAlign=middle;whiteSpace=wrap;rounded=0;" vertex="1" parent="1">
          <mxGeometry x="-570" y="100" width="1950" height="280" as="geometry" />
        </mxCell>
        <mxCell id="PY0LSQ1uhZMkH___Wvzr-4" value="&lt;font style=&quot;font-size: 50px;&quot;&gt;Employee&lt;/font&gt;" style="shape=umlActor;verticalLabelPosition=bottom;verticalAlign=top;html=1;outlineConnect=0;" vertex="1" parent="1">
          <mxGeometry x="1450" y="1010" width="110" height="170" as="geometry" />
        </mxCell>
        <mxCell id="PY0LSQ1uhZMkH___Wvzr-6" value="&lt;font style=&quot;font-size: 50px;&quot;&gt;Register&lt;/font&gt;" style="ellipse;whiteSpace=wrap;html=1;" vertex="1" parent="1">
          <mxGeometry x="-330" y="360" width="310" height="80" as="geometry" />
        </mxCell>
        <mxCell id="PY0LSQ1uhZMkH___Wvzr-13" value="" style="endArrow=none;html=1;rounded=0;exitX=1;exitY=0.3333333333333333;exitDx=0;exitDy=0;exitPerimeter=0;" edge="1" parent="1" source="PY0LSQ1uhZMkH___Wvzr-2">
          <mxGeometry width="50" height="50" relative="1" as="geometry">
            <mxPoint x="-888.5699999999999" y="1090" as="sourcePoint" />
            <mxPoint x="-329.9985714285715" y="400" as="targetPoint" />
          </mxGeometry>
        </mxCell>
        <mxCell id="PY0LSQ1uhZMkH___Wvzr-14" value="&lt;span style=&quot;font-size: 50px;&quot;&gt;Login&lt;/span&gt;" style="ellipse;whiteSpace=wrap;html=1;" vertex="1" parent="1">
          <mxGeometry x="-330" y="470" width="310" height="80" as="geometry" />
        </mxCell>
        <mxCell id="PY0LSQ1uhZMkH___Wvzr-15" value="&lt;span style=&quot;font-size: 50px;&quot;&gt;New Account&lt;/span&gt;" style="ellipse;whiteSpace=wrap;html=1;" vertex="1" parent="1">
          <mxGeometry x="-330" y="560" width="340" height="100" as="geometry" />
        </mxCell>
        <mxCell id="PY0LSQ1uhZMkH___Wvzr-16" value="&lt;span style=&quot;font-size: 50px;&quot;&gt;View Account&lt;/span&gt;" style="ellipse;whiteSpace=wrap;html=1;" vertex="1" parent="1">
          <mxGeometry x="-330" y="680" width="330" height="90" as="geometry" />
        </mxCell>
        <mxCell id="PY0LSQ1uhZMkH___Wvzr-17" value="&lt;span style=&quot;font-size: 50px;&quot;&gt;Deposit&lt;/span&gt;" style="ellipse;whiteSpace=wrap;html=1;" vertex="1" parent="1">
          <mxGeometry x="-330" y="800" width="310" height="80" as="geometry" />
        </mxCell>
        <mxCell id="PY0LSQ1uhZMkH___Wvzr-18" value="&lt;span style=&quot;font-size: 50px;&quot;&gt;Withdraw&lt;/span&gt;" style="ellipse;whiteSpace=wrap;html=1;" vertex="1" parent="1">
          <mxGeometry x="-330" y="910" width="310" height="80" as="geometry" />
        </mxCell>
        <mxCell id="PY0LSQ1uhZMkH___Wvzr-19" value="" style="endArrow=none;html=1;rounded=0;exitX=1;exitY=0.3333333333333333;exitDx=0;exitDy=0;exitPerimeter=0;entryX=0;entryY=0.5;entryDx=0;entryDy=0;" edge="1" parent="1" target="PY0LSQ1uhZMkH___Wvzr-14">
          <mxGeometry width="50" height="50" relative="1" as="geometry">
            <mxPoint x="-620" y="1070" as="sourcePoint" />
            <mxPoint x="-329.9985714285715" y="400" as="targetPoint" />
          </mxGeometry>
        </mxCell>
        <mxCell id="PY0LSQ1uhZMkH___Wvzr-20" value="" style="endArrow=none;html=1;rounded=0;entryX=0;entryY=0.5;entryDx=0;entryDy=0;exitX=1;exitY=0.3333333333333333;exitDx=0;exitDy=0;exitPerimeter=0;" edge="1" parent="1" source="PY0LSQ1uhZMkH___Wvzr-2" target="PY0LSQ1uhZMkH___Wvzr-15">
          <mxGeometry width="50" height="50" relative="1" as="geometry">
            <mxPoint x="-620" y="1060" as="sourcePoint" />
            <mxPoint x="-309.9985714285715" y="420" as="targetPoint" />
          </mxGeometry>
        </mxCell>
        <mxCell id="PY0LSQ1uhZMkH___Wvzr-21" value="" style="endArrow=none;html=1;rounded=0;entryX=0;entryY=0.5;entryDx=0;entryDy=0;exitX=1;exitY=0.3333333333333333;exitDx=0;exitDy=0;exitPerimeter=0;" edge="1" parent="1" source="PY0LSQ1uhZMkH___Wvzr-2" target="PY0LSQ1uhZMkH___Wvzr-16">
          <mxGeometry width="50" height="50" relative="1" as="geometry">
            <mxPoint x="-610" y="1080" as="sourcePoint" />
            <mxPoint x="-320" y="640" as="targetPoint" />
          </mxGeometry>
        </mxCell>
        <mxCell id="PY0LSQ1uhZMkH___Wvzr-22" value="" style="endArrow=none;html=1;rounded=0;entryX=0;entryY=0.5;entryDx=0;entryDy=0;" edge="1" parent="1" target="PY0LSQ1uhZMkH___Wvzr-17">
          <mxGeometry width="50" height="50" relative="1" as="geometry">
            <mxPoint x="-620" y="1070" as="sourcePoint" />
            <mxPoint x="-310" y="650" as="targetPoint" />
          </mxGeometry>
        </mxCell>
        <mxCell id="PY0LSQ1uhZMkH___Wvzr-23" value="" style="endArrow=none;html=1;rounded=0;entryX=0;entryY=0.5;entryDx=0;entryDy=0;exitX=1;exitY=0.3333333333333333;exitDx=0;exitDy=0;exitPerimeter=0;" edge="1" parent="1" source="PY0LSQ1uhZMkH___Wvzr-2" target="PY0LSQ1uhZMkH___Wvzr-18">
          <mxGeometry width="50" height="50" relative="1" as="geometry">
            <mxPoint x="-580" y="1180" as="sourcePoint" />
            <mxPoint x="-300" y="660" as="targetPoint" />
          </mxGeometry>
        </mxCell>
        <mxCell id="PY0LSQ1uhZMkH___Wvzr-24" value="&lt;span style=&quot;font-size: 50px;&quot;&gt;ATM Card&lt;/span&gt;" style="ellipse;whiteSpace=wrap;html=1;" vertex="1" parent="1">
          <mxGeometry x="-330" y="1020" width="310" height="80" as="geometry" />
        </mxCell>
        <mxCell id="PY0LSQ1uhZMkH___Wvzr-25" value="&lt;span style=&quot;font-size: 50px;&quot;&gt;Credit Card&lt;/span&gt;" style="ellipse;whiteSpace=wrap;html=1;" vertex="1" parent="1">
          <mxGeometry x="-330" y="1130" width="310" height="80" as="geometry" />
        </mxCell>
        <mxCell id="PY0LSQ1uhZMkH___Wvzr-26" value="&lt;span style=&quot;font-size: 50px;&quot;&gt;Debit Card&lt;/span&gt;" style="ellipse;whiteSpace=wrap;html=1;" vertex="1" parent="1">
          <mxGeometry x="-320" y="1240" width="310" height="80" as="geometry" />
        </mxCell>
        <mxCell id="PY0LSQ1uhZMkH___Wvzr-27" value="&lt;span style=&quot;font-size: 50px;&quot;&gt;Add Payee&lt;/span&gt;" style="ellipse;whiteSpace=wrap;html=1;" vertex="1" parent="1">
          <mxGeometry x="-330" y="1350" width="310" height="80" as="geometry" />
        </mxCell>
        <mxCell id="PY0LSQ1uhZMkH___Wvzr-28" value="&lt;span style=&quot;font-size: 50px;&quot;&gt;Bill Pay&lt;/span&gt;" style="ellipse;whiteSpace=wrap;html=1;" vertex="1" parent="1">
          <mxGeometry x="-320" y="1460" width="310" height="80" as="geometry" />
        </mxCell>
        <mxCell id="PY0LSQ1uhZMkH___Wvzr-29" value="&lt;span style=&quot;font-size: 50px;&quot;&gt;Set PIN&lt;/span&gt;" style="ellipse;whiteSpace=wrap;html=1;" vertex="1" parent="1">
          <mxGeometry x="-320" y="1570" width="310" height="80" as="geometry" />
        </mxCell>
        <mxCell id="PY0LSQ1uhZMkH___Wvzr-31" value="" style="endArrow=none;html=1;rounded=0;exitX=1;exitY=0.3333333333333333;exitDx=0;exitDy=0;exitPerimeter=0;entryX=0;entryY=0.5;entryDx=0;entryDy=0;" edge="1" parent="1" source="PY0LSQ1uhZMkH___Wvzr-2" target="PY0LSQ1uhZMkH___Wvzr-24">
          <mxGeometry width="50" height="50" relative="1" as="geometry">
            <mxPoint x="-610" y="1080" as="sourcePoint" />
            <mxPoint x="-319.9985714285715" y="410" as="targetPoint" />
          </mxGeometry>
        </mxCell>
        <mxCell id="PY0LSQ1uhZMkH___Wvzr-32" value="" style="endArrow=none;html=1;rounded=0;exitX=1;exitY=0.3333333333333333;exitDx=0;exitDy=0;exitPerimeter=0;entryX=0;entryY=0.5;entryDx=0;entryDy=0;" edge="1" parent="1" source="PY0LSQ1uhZMkH___Wvzr-2" target="PY0LSQ1uhZMkH___Wvzr-25">
          <mxGeometry width="50" height="50" relative="1" as="geometry">
            <mxPoint x="-600" y="1090" as="sourcePoint" />
            <mxPoint x="-309.9985714285715" y="420" as="targetPoint" />
          </mxGeometry>
        </mxCell>
        <mxCell id="PY0LSQ1uhZMkH___Wvzr-43" value="" style="endArrow=none;html=1;rounded=0;exitX=1;exitY=0.3333333333333333;exitDx=0;exitDy=0;exitPerimeter=0;entryX=0;entryY=0.5;entryDx=0;entryDy=0;" edge="1" parent="1" source="PY0LSQ1uhZMkH___Wvzr-2" target="PY0LSQ1uhZMkH___Wvzr-26">
          <mxGeometry width="50" height="50" relative="1" as="geometry">
            <mxPoint x="-616" y="1080" as="sourcePoint" />
            <mxPoint x="-319.9985714285715" y="410" as="targetPoint" />
          </mxGeometry>
        </mxCell>
        <mxCell id="PY0LSQ1uhZMkH___Wvzr-44" value="" style="endArrow=none;html=1;rounded=0;exitX=1;exitY=0.3333333333333333;exitDx=0;exitDy=0;exitPerimeter=0;entryX=0;entryY=0.5;entryDx=0;entryDy=0;" edge="1" parent="1" source="PY0LSQ1uhZMkH___Wvzr-2" target="PY0LSQ1uhZMkH___Wvzr-27">
          <mxGeometry width="50" height="50" relative="1" as="geometry">
            <mxPoint x="-616" y="1080" as="sourcePoint" />
            <mxPoint x="-319.9985714285715" y="410" as="targetPoint" />
          </mxGeometry>
        </mxCell>
        <mxCell id="PY0LSQ1uhZMkH___Wvzr-45" value="" style="endArrow=none;html=1;rounded=0;exitX=1;exitY=0.3333333333333333;exitDx=0;exitDy=0;exitPerimeter=0;entryX=0;entryY=0.5;entryDx=0;entryDy=0;" edge="1" parent="1" source="PY0LSQ1uhZMkH___Wvzr-2" target="PY0LSQ1uhZMkH___Wvzr-28">
          <mxGeometry width="50" height="50" relative="1" as="geometry">
            <mxPoint x="-616" y="1080" as="sourcePoint" />
            <mxPoint x="-319.9985714285715" y="410" as="targetPoint" />
          </mxGeometry>
        </mxCell>
        <mxCell id="PY0LSQ1uhZMkH___Wvzr-46" value="" style="endArrow=none;html=1;rounded=0;exitX=1;exitY=0.3333333333333333;exitDx=0;exitDy=0;exitPerimeter=0;entryX=0;entryY=0.5;entryDx=0;entryDy=0;" edge="1" parent="1" source="PY0LSQ1uhZMkH___Wvzr-2" target="PY0LSQ1uhZMkH___Wvzr-29">
          <mxGeometry width="50" height="50" relative="1" as="geometry">
            <mxPoint x="-616" y="1080" as="sourcePoint" />
            <mxPoint x="-319.9985714285715" y="410" as="targetPoint" />
          </mxGeometry>
        </mxCell>
      </root>
    </mxGraphModel>
  </diagram>
</mxfile>
